<svg width="125" height="121" viewBox="0 0 125 121" fill="none" xmlns="http://www.w3.org/2000/svg">
<g filter="url(#filter0_b_715_11065)">
<path d="M0 20C0 8.95431 8.9543 0 20 0H105C116.046 0 125 8.9543 125 20V101C125 112.046 116.046 121 105 121H20C8.95431 121 0 112.046 0 101V20Z" fill="url(#paint0_radial_715_11065)"/>
<mask id="mask0_715_11065" style="mask-type:alpha" maskUnits="userSpaceOnUse" x="45" y="14" width="35" height="34">
<rect x="45.5" y="14" width="34" height="34" fill="#D9D9D9"/>
</mask>
<g mask="url(#mask0_715_11065)">
<path d="M62.4791 40.3206L67.1438 29.7388C67.2373 29.5209 67.2216 29.3179 67.0967 29.13C66.9716 28.942 66.7944 28.8481 66.5651 28.8481H63.2795V21.7215C63.2795 21.5397 63.1954 21.4356 63.0273 21.4091C62.8595 21.3829 62.738 21.4462 62.6629 21.599L57.9985 32.2066C57.905 32.425 57.9207 32.6282 58.0456 32.8161C58.1708 33.0041 58.348 33.0981 58.5772 33.0981H61.8628V40.1984C61.8628 40.3795 61.9469 40.4833 62.115 40.5097C62.2829 40.5359 62.4042 40.4729 62.4791 40.3206ZM62.5028 44.4587C60.6413 44.4587 58.8916 44.1054 57.2537 43.399C55.6158 42.6925 54.1911 41.7338 52.9796 40.5228C51.7681 39.3118 50.8089 37.8877 50.102 36.2505C49.3953 34.6133 49.042 32.8641 49.042 31.0028C49.042 29.1413 49.3952 27.3916 50.1017 25.7537C50.8081 24.1158 51.7668 22.6911 52.9778 21.4796C54.1889 20.2681 55.613 19.3089 57.2502 18.602C58.8874 17.8953 60.6366 17.542 62.4978 17.542C64.3593 17.542 66.109 17.8952 67.747 18.6017C69.3849 19.3081 70.8095 20.2668 72.021 21.4778C73.2325 22.6889 74.1917 24.113 74.8986 25.7502C75.6053 27.3874 75.9587 29.1366 75.9587 30.9978C75.9587 32.8593 75.6054 34.609 74.899 36.247C74.1925 37.8849 73.2338 39.3095 72.0228 40.521C70.8118 41.7325 69.3877 42.6917 67.7505 43.3986C66.1133 44.1053 64.3641 44.4587 62.5028 44.4587Z" fill="white"/>
</g>
<path d="M49.8256 62.3636C49.7659 61.8598 49.5239 61.4688 49.0997 61.1903C48.6755 60.9119 48.1551 60.7727 47.5386 60.7727C47.0879 60.7727 46.6934 60.8456 46.3554 60.9915C46.0206 61.1373 45.7588 61.3378 45.5699 61.593C45.3843 61.8482 45.2915 62.1383 45.2915 62.4631C45.2915 62.7348 45.3561 62.9685 45.4854 63.1641C45.6179 63.3563 45.787 63.517 45.9925 63.6463C46.1979 63.7723 46.4134 63.8767 46.6388 63.9595C46.8641 64.0391 47.0713 64.1037 47.2602 64.1534L48.2943 64.4318C48.5595 64.5014 48.8544 64.5975 49.1792 64.7202C49.5074 64.8428 49.8206 65.0102 50.1189 65.2223C50.4205 65.4311 50.6691 65.6996 50.8646 66.0277C51.0602 66.3558 51.1579 66.7585 51.1579 67.2358C51.1579 67.786 51.0138 68.2831 50.7254 68.7273C50.4404 69.1714 50.0228 69.5244 49.4726 69.7862C48.9257 70.0481 48.2612 70.179 47.479 70.179C46.7498 70.179 46.1184 70.0613 45.5848 69.826C45.0545 69.5907 44.6369 69.2625 44.3319 68.8416C44.0303 68.4207 43.8596 67.9318 43.8199 67.375H45.0926C45.1257 67.7595 45.255 68.0777 45.4804 68.3295C45.7091 68.5781 45.9974 68.7637 46.3454 68.8864C46.6968 69.0057 47.0746 69.0653 47.479 69.0653C47.9496 69.0653 48.3722 68.9891 48.7467 68.8366C49.1212 68.6809 49.4179 68.4654 49.6366 68.1903C49.8554 67.9119 49.9648 67.5871 49.9648 67.2159C49.9648 66.8778 49.8703 66.6027 49.6814 66.3906C49.4925 66.1785 49.2439 66.0062 48.9356 65.8736C48.6274 65.741 48.2943 65.625 47.9363 65.5256L46.6835 65.1676C45.8881 64.9389 45.2583 64.6125 44.7943 64.1882C44.3303 63.764 44.0983 63.2088 44.0983 62.5227C44.0983 61.9527 44.2524 61.4555 44.5606 61.0312C44.8722 60.6037 45.2898 60.2723 45.8135 60.0369C46.3405 59.7983 46.9288 59.679 47.5784 59.679C48.2346 59.679 48.818 59.7966 49.3284 60.032C49.8388 60.264 50.2432 60.5821 50.5415 60.9865C50.8431 61.3909 51.0022 61.8499 51.0187 62.3636H49.8256ZM57.8385 66.8778V62.3636H59.0118V70H57.8385V68.7074H57.759C57.58 69.0952 57.3016 69.425 56.9237 69.6967C56.5459 69.9652 56.0686 70.0994 55.4919 70.0994C55.0146 70.0994 54.5904 69.995 54.2192 69.7862C53.848 69.5741 53.5563 69.2559 53.3442 68.8317C53.1321 68.4041 53.026 67.8655 53.026 67.2159V62.3636H54.1993V67.1364C54.1993 67.6932 54.3551 68.1373 54.6666 68.4688C54.9815 68.8002 55.3825 68.9659 55.8698 68.9659C56.1614 68.9659 56.4581 68.8913 56.7597 68.7422C57.0646 68.593 57.3198 68.3643 57.5253 68.0561C57.7341 67.7479 57.8385 67.3551 57.8385 66.8778ZM61.1608 72.8636V62.3636H62.2943V63.5767H62.4335C62.5197 63.4441 62.639 63.2751 62.7915 63.0696C62.9472 62.8608 63.1693 62.6752 63.4577 62.5128C63.7493 62.3471 64.1437 62.2642 64.6409 62.2642C65.2839 62.2642 65.8506 62.425 66.3412 62.7464C66.8317 63.0679 67.2145 63.5237 67.4896 64.1136C67.7647 64.7036 67.9023 65.3996 67.9023 66.2017C67.9023 67.0104 67.7647 67.7114 67.4896 68.3047C67.2145 68.8946 66.8334 69.352 66.3461 69.6768C65.8589 69.9983 65.2971 70.1591 64.6608 70.1591C64.1702 70.1591 63.7775 70.0779 63.4825 69.9155C63.1875 69.7498 62.9605 69.5625 62.8014 69.3537C62.6423 69.1416 62.5197 68.9659 62.4335 68.8267H62.3341V72.8636H61.1608ZM62.3142 66.1818C62.3142 66.7585 62.3987 67.2673 62.5677 67.7081C62.7368 68.1456 62.9837 68.4886 63.3085 68.7372C63.6333 68.9825 64.031 69.1051 64.5017 69.1051C64.9922 69.1051 65.4015 68.9759 65.7297 68.7173C66.0611 68.4555 66.3097 68.1042 66.4754 67.6634C66.6444 67.2192 66.729 66.7254 66.729 66.1818C66.729 65.6449 66.6461 65.161 66.4804 64.7301C66.318 64.2959 66.0711 63.9529 65.7396 63.701C65.4115 63.4458 64.9988 63.3182 64.5017 63.3182C64.0244 63.3182 63.6234 63.4392 63.2986 63.6811C62.9738 63.9197 62.7285 64.2545 62.5628 64.6854C62.397 65.1129 62.3142 65.6117 62.3142 66.1818ZM72.8937 70.1591C72.1579 70.1591 71.5232 69.9967 70.9896 69.6719C70.4593 69.3438 70.05 68.8864 69.7616 68.2997C69.4766 67.7098 69.3341 67.0237 69.3341 66.2415C69.3341 65.4593 69.4766 64.7699 69.7616 64.1733C70.05 63.5734 70.451 63.1061 70.9648 62.7713C71.4818 62.4332 72.085 62.2642 72.7744 62.2642C73.1721 62.2642 73.5649 62.3305 73.9527 62.4631C74.3405 62.5956 74.6934 62.8111 75.0116 63.1094C75.3298 63.4044 75.5834 63.7955 75.7723 64.2827C75.9612 64.7699 76.0557 65.3698 76.0557 66.0824V66.5795H70.1693V65.5653H74.8625C74.8625 65.1345 74.7763 64.75 74.604 64.4119C74.4349 64.0739 74.193 63.8071 73.8781 63.6115C73.5666 63.416 73.1987 63.3182 72.7744 63.3182C72.3071 63.3182 71.9027 63.4342 71.5613 63.6662C71.2233 63.8949 70.9631 64.1932 70.7808 64.5611C70.5985 64.929 70.5074 65.3234 70.5074 65.7443V66.4205C70.5074 66.9972 70.6068 67.486 70.8057 67.8871C71.0078 68.2848 71.2879 68.5881 71.6459 68.7969C72.0038 69.0024 72.4198 69.1051 72.8937 69.1051C73.202 69.1051 73.4804 69.062 73.729 68.9759C73.9809 68.8864 74.1979 68.7538 74.3802 68.5781C74.5625 68.3991 74.7034 68.1771 74.8028 67.9119L75.9363 68.2301C75.817 68.6146 75.6165 68.9527 75.3348 69.2443C75.0531 69.5327 74.705 69.758 74.2907 69.9205C73.8765 70.0795 73.4108 70.1591 72.8937 70.1591ZM77.8405 70V62.3636H78.974V63.517H79.0535C79.1927 63.1392 79.4446 62.8326 79.8092 62.5973C80.1738 62.362 80.5848 62.2443 81.0422 62.2443C81.1283 62.2443 81.2361 62.246 81.3653 62.2493C81.4946 62.2526 81.5924 62.2576 81.6586 62.2642V63.4574C81.6189 63.4474 81.5277 63.4325 81.3852 63.4126C81.246 63.3894 81.0985 63.3778 80.9427 63.3778C80.5715 63.3778 80.2401 63.4557 79.9484 63.6115C79.6601 63.764 79.4314 63.9761 79.2623 64.2479C79.0966 64.5163 79.0138 64.8229 79.0138 65.1676V70H77.8405ZM34.7194 89.8636V79.3636H35.8529V80.5767H35.9921C36.0783 80.4441 36.1976 80.2751 36.3501 80.0696C36.5058 79.8608 36.7279 79.6752 37.0162 79.5128C37.3079 79.3471 37.7023 79.2642 38.1995 79.2642C38.8425 79.2642 39.4092 79.425 39.8998 79.7464C40.3903 80.0679 40.7731 80.5237 41.0482 81.1136C41.3233 81.7036 41.4608 82.3996 41.4608 83.2017C41.4608 84.0104 41.3233 84.7114 41.0482 85.3047C40.7731 85.8946 40.392 86.352 39.9047 86.6768C39.4175 86.9983 38.8557 87.1591 38.2194 87.1591C37.7288 87.1591 37.3361 87.0779 37.0411 86.9155C36.7461 86.7498 36.5191 86.5625 36.36 86.3537C36.2009 86.1416 36.0783 85.9659 35.9921 85.8267H35.8927V89.8636H34.7194ZM35.8728 83.1818C35.8728 83.7585 35.9573 84.2673 36.1263 84.7081C36.2954 85.1456 36.5423 85.4886 36.8671 85.7372C37.1919 85.9825 37.5896 86.1051 38.0603 86.1051C38.5508 86.1051 38.9601 85.9759 39.2883 85.7173C39.6197 85.4555 39.8683 85.1042 40.034 84.6634C40.203 84.2192 40.2876 83.7254 40.2876 83.1818C40.2876 82.6449 40.2047 82.161 40.039 81.7301C39.8766 81.2959 39.6296 80.9529 39.2982 80.701C38.9701 80.4458 38.5574 80.3182 38.0603 80.3182C37.583 80.3182 37.182 80.4392 36.8572 80.6811C36.5323 80.9197 36.2871 81.2545 36.1214 81.6854C35.9556 82.1129 35.8728 82.6117 35.8728 83.1818ZM46.3529 87.1591C45.6635 87.1591 45.0586 86.995 44.5383 86.6669C44.0212 86.3388 43.6169 85.8797 43.3252 85.2898C43.0368 84.6998 42.8927 84.0104 42.8927 83.2216C42.8927 82.4261 43.0368 81.7318 43.3252 81.1385C43.6169 80.5452 44.0212 80.0845 44.5383 79.7564C45.0586 79.4283 45.6635 79.2642 46.3529 79.2642C47.0423 79.2642 47.6455 79.4283 48.1626 79.7564C48.6829 80.0845 49.0873 80.5452 49.3756 81.1385C49.6673 81.7318 49.8131 82.4261 49.8131 83.2216C49.8131 84.0104 49.6673 84.6998 49.3756 85.2898C49.0873 85.8797 48.6829 86.3388 48.1626 86.6669C47.6455 86.995 47.0423 87.1591 46.3529 87.1591ZM46.3529 86.1051C46.8766 86.1051 47.3074 85.9709 47.6455 85.7024C47.9836 85.4339 48.2338 85.081 48.3962 84.6435C48.5586 84.206 48.6398 83.732 48.6398 83.2216C48.6398 82.7112 48.5586 82.2356 48.3962 81.7947C48.2338 81.3539 47.9836 80.9976 47.6455 80.7259C47.3074 80.4541 46.8766 80.3182 46.3529 80.3182C45.8292 80.3182 45.3983 80.4541 45.0603 80.7259C44.7222 80.9976 44.472 81.3539 44.3096 81.7947C44.1472 82.2356 44.066 82.7112 44.066 83.2216C44.066 83.732 44.1472 84.206 44.3096 84.6435C44.472 85.081 44.7222 85.4339 45.0603 85.7024C45.3983 85.9709 45.8292 86.1051 46.3529 86.1051ZM53.0745 87L50.7478 79.3636H51.9807L53.6313 85.2102H53.7108L55.3415 79.3636H56.5944L58.2052 85.1903H58.2847L59.9353 79.3636H61.1682L58.8415 87H57.6881L56.0177 81.1335H55.8983L54.2279 87H53.0745ZM65.6613 87.1591C64.9255 87.1591 64.2908 86.9967 63.7572 86.6719C63.2269 86.3438 62.8176 85.8864 62.5292 85.2997C62.2442 84.7098 62.1017 84.0237 62.1017 83.2415C62.1017 82.4593 62.2442 81.7699 62.5292 81.1733C62.8176 80.5734 63.2186 80.1061 63.7323 79.7713C64.2494 79.4332 64.8526 79.2642 65.542 79.2642C65.9397 79.2642 66.3325 79.3305 66.7203 79.4631C67.108 79.5956 67.461 79.8111 67.7792 80.1094C68.0974 80.4044 68.3509 80.7955 68.5399 81.2827C68.7288 81.7699 68.8232 82.3698 68.8232 83.0824V83.5795H62.9369V82.5653H67.6301C67.6301 82.1345 67.5439 81.75 67.3715 81.4119C67.2025 81.0739 66.9606 80.8071 66.6457 80.6115C66.3341 80.416 65.9662 80.3182 65.542 80.3182C65.0747 80.3182 64.6703 80.4342 64.3289 80.6662C63.9909 80.8949 63.7307 81.1932 63.5484 81.5611C63.3661 81.929 63.2749 82.3234 63.2749 82.7443V83.4205C63.2749 83.9972 63.3744 84.486 63.5732 84.8871C63.7754 85.2848 64.0555 85.5881 64.4134 85.7969C64.7714 86.0024 65.1874 86.1051 65.6613 86.1051C65.9695 86.1051 66.248 86.062 66.4965 85.9759C66.7484 85.8864 66.9655 85.7538 67.1478 85.5781C67.3301 85.3991 67.471 85.1771 67.5704 84.9119L68.7039 85.2301C68.5846 85.6146 68.3841 85.9527 68.1024 86.2443C67.8206 86.5327 67.4726 86.758 67.0583 86.9205C66.644 87.0795 66.1784 87.1591 65.6613 87.1591ZM70.608 87V79.3636H71.7416V80.517H71.8211C71.9603 80.1392 72.2122 79.8326 72.5768 79.5973C72.9414 79.362 73.3524 79.2443 73.8097 79.2443C73.8959 79.2443 74.0036 79.246 74.1329 79.2493C74.2622 79.2526 74.3599 79.2576 74.4262 79.2642V80.4574C74.3865 80.4474 74.2953 80.4325 74.1528 80.4126C74.0136 80.3894 73.8661 80.3778 73.7103 80.3778C73.3391 80.3778 73.0077 80.4557 72.716 80.6115C72.4276 80.764 72.199 80.9761 72.0299 81.2479C71.8642 81.5163 71.7813 81.8229 71.7813 82.1676V87H70.608ZM78.7863 87.1591C78.0505 87.1591 77.4158 86.9967 76.8822 86.6719C76.3519 86.3438 75.9426 85.8864 75.6542 85.2997C75.3692 84.7098 75.2267 84.0237 75.2267 83.2415C75.2267 82.4593 75.3692 81.7699 75.6542 81.1733C75.9426 80.5734 76.3436 80.1061 76.8573 79.7713C77.3744 79.4332 77.9776 79.2642 78.667 79.2642C79.0647 79.2642 79.4575 79.3305 79.8453 79.4631C80.233 79.5956 80.586 79.8111 80.9042 80.1094C81.2224 80.4044 81.4759 80.7955 81.6649 81.2827C81.8538 81.7699 81.9482 82.3698 81.9482 83.0824V83.5795H76.0619V82.5653H80.7551C80.7551 82.1345 80.6689 81.75 80.4965 81.4119C80.3275 81.0739 80.0856 80.8071 79.7707 80.6115C79.4591 80.416 79.0912 80.3182 78.667 80.3182C78.1997 80.3182 77.7953 80.4342 77.4539 80.6662C77.1159 80.8949 76.8557 81.1932 76.6734 81.5611C76.4911 81.929 76.3999 82.3234 76.3999 82.7443V83.4205C76.3999 83.9972 76.4994 84.486 76.6982 84.8871C76.9004 85.2848 77.1805 85.5881 77.5384 85.7969C77.8964 86.0024 78.3124 86.1051 78.7863 86.1051C79.0945 86.1051 79.373 86.062 79.6215 85.9759C79.8734 85.8864 80.0905 85.7538 80.2728 85.5781C80.4551 85.3991 80.596 85.1771 80.6954 84.9119L81.8289 85.2301C81.7096 85.6146 81.5091 85.9527 81.2274 86.2443C80.9456 86.5327 80.5976 86.758 80.1833 86.9205C79.769 87.0795 79.3034 87.1591 78.7863 87.1591ZM86.6166 87.1591C85.9802 87.1591 85.4184 86.9983 84.9312 86.6768C84.444 86.352 84.0628 85.8946 83.7877 85.3047C83.5126 84.7114 83.3751 84.0104 83.3751 83.2017C83.3751 82.3996 83.5126 81.7036 83.7877 81.1136C84.0628 80.5237 84.4456 80.0679 84.9362 79.7464C85.4267 79.425 85.9935 79.2642 86.6365 79.2642C87.1336 79.2642 87.5264 79.3471 87.8147 79.5128C88.1064 79.6752 88.3285 79.8608 88.4809 80.0696C88.6367 80.2751 88.7577 80.4441 88.8438 80.5767H88.9433V76.8182H90.1166V87H88.983V85.8267H88.8438C88.7577 85.9659 88.635 86.1416 88.4759 86.3537C88.3169 86.5625 88.0898 86.7498 87.7948 86.9155C87.4999 87.0779 87.1071 87.1591 86.6166 87.1591ZM86.7757 86.1051C87.2463 86.1051 87.644 85.9825 87.9688 85.7372C88.2936 85.4886 88.5406 85.1456 88.7096 84.7081C88.8786 84.2673 88.9632 83.7585 88.9632 83.1818C88.9632 82.6117 88.8803 82.1129 88.7146 81.6854C88.5489 81.2545 88.3036 80.9197 87.9788 80.6811C87.654 80.4392 87.2529 80.3182 86.7757 80.3182C86.2785 80.3182 85.8642 80.4458 85.5328 80.701C85.2046 80.9529 84.9577 81.2959 84.792 81.7301C84.6296 82.161 84.5484 82.6449 84.5484 83.1818C84.5484 83.7254 84.6312 84.2192 84.797 84.6634C84.966 85.1042 85.2146 85.4555 85.5427 85.7173C85.8741 85.9759 86.2851 86.1051 86.7757 86.1051ZM47.0738 104V93.8182H48.2471V97.5767H48.3465C48.4327 97.4441 48.552 97.2751 48.7045 97.0696C48.8602 96.8608 49.0823 96.6752 49.3706 96.5128C49.6623 96.3471 50.0567 96.2642 50.5539 96.2642C51.1969 96.2642 51.7636 96.425 52.2542 96.7464C52.7447 97.0679 53.1275 97.5237 53.4026 98.1136C53.6777 98.7036 53.8153 99.3996 53.8153 100.202C53.8153 101.01 53.6777 101.711 53.4026 102.305C53.1275 102.895 52.7464 103.352 52.2591 103.677C51.7719 103.998 51.2101 104.159 50.5738 104.159C50.0832 104.159 49.6905 104.078 49.3955 103.915C49.1005 103.75 48.8735 103.562 48.7144 103.354C48.5553 103.142 48.4327 102.966 48.3465 102.827H48.2073V104H47.0738ZM48.2272 100.182C48.2272 100.759 48.3117 101.267 48.4807 101.708C48.6498 102.146 48.8967 102.489 49.2215 102.737C49.5463 102.982 49.944 103.105 50.4147 103.105C50.9052 103.105 51.3145 102.976 51.6427 102.717C51.9741 102.455 52.2227 102.104 52.3884 101.663C52.5574 101.219 52.642 100.725 52.642 100.182C52.642 99.6449 52.5591 99.161 52.3934 98.7301C52.231 98.2959 51.984 97.9529 51.6526 97.701C51.3245 97.4458 50.9118 97.3182 50.4147 97.3182C49.9374 97.3182 49.5364 97.4392 49.2116 97.6811C48.8867 97.9197 48.6415 98.2545 48.4758 98.6854C48.31 99.1129 48.2272 99.6117 48.2272 100.182ZM56.0922 106.864C55.8934 106.864 55.7161 106.847 55.5603 106.814C55.4045 106.784 55.2968 106.754 55.2371 106.724L55.5354 105.69C55.8205 105.763 56.0724 105.79 56.2911 105.77C56.5099 105.75 56.7037 105.652 56.8728 105.477C57.0451 105.304 57.2026 105.024 57.3451 104.636L57.5638 104.04L54.74 96.3636H56.0127L58.1206 102.449H58.2002L60.3081 96.3636H61.5809L58.3394 105.114C58.1936 105.508 58.0129 105.835 57.7975 106.093C57.5821 106.355 57.3318 106.549 57.0468 106.675C56.7651 106.801 56.4469 106.864 56.0922 106.864ZM67.6437 104H66.3511L70.0898 93.8182H71.3625L75.1011 104H73.8085L70.7659 95.429H70.6863L67.6437 104ZM68.121 100.023H73.3312V101.116H68.121V100.023ZM77.92 93.8182V104H76.6871V93.8182H77.92Z" fill="white"/>
</g>
<defs>
<filter id="filter0_b_715_11065" x="-14" y="-14" width="153" height="149" filterUnits="userSpaceOnUse" color-interpolation-filters="sRGB">
<feFlood flood-opacity="0" result="BackgroundImageFix"/>
<feGaussianBlur in="BackgroundImageFix" stdDeviation="7"/>
<feComposite in2="SourceAlpha" operator="in" result="effect1_backgroundBlur_715_11065"/>
<feBlend mode="normal" in="SourceGraphic" in2="effect1_backgroundBlur_715_11065" result="shape"/>
</filter>
<radialGradient id="paint0_radial_715_11065" cx="0" cy="0" r="1" gradientUnits="userSpaceOnUse" gradientTransform="translate(62.5 60.5) rotate(89.7281) scale(88.3784 91.3021)">
<stop stop-color="#0E121B" stop-opacity="0"/>
<stop offset="1" stop-color="#043B81"/>
</radialGradient>
</defs>
</svg>
