<svg width="78" height="70" viewBox="0 0 78 70" fill="none" xmlns="http://www.w3.org/2000/svg">
<g filter="url(#filter0_b_715_11070)">
<path d="M0 20C0 8.9543 8.95431 0 20 0H58C69.0457 0 78 8.95431 78 20V50C78 61.0457 69.0457 70 58 70H20C8.9543 70 0 61.0457 0 50V20Z" fill="url(#paint0_radial_715_11070)"/>
<mask id="mask0_715_11070" style="mask-type:alpha" maskUnits="userSpaceOnUse" x="18" y="14" width="42" height="42">
<rect x="18" y="14" width="42" height="42" fill="#D9D9D9"/>
</mask>
<g mask="url(#mask0_715_11070)">
<path d="M36.5163 38.7559L32.4511 34.6903C32.2087 34.4482 31.904 34.3242 31.5371 34.3184C31.1705 34.3128 30.8603 34.4368 30.6066 34.6903C30.3531 34.944 30.2264 35.2514 30.2264 35.6125C30.2264 35.9736 30.3531 36.281 30.6066 36.5347L35.409 41.3372C35.7255 41.6534 36.0946 41.8114 36.5163 41.8114C36.9381 41.8114 37.3072 41.6534 37.6236 41.3372L47.3598 31.6011C47.6018 31.3587 47.7258 31.054 47.7316 30.6871C47.7372 30.3205 47.6132 30.0103 47.3598 29.7566C47.106 29.5031 46.7986 29.3764 46.4375 29.3764C46.0764 29.3764 45.769 29.5031 45.5152 29.7566L36.5163 38.7559ZM39.0031 51.625C36.7036 51.625 34.5422 51.1887 32.5189 50.316C30.4956 49.4433 28.7357 48.259 27.2391 46.7631C25.7426 45.2671 24.5577 43.5079 23.6844 41.4855C22.8115 39.4631 22.375 37.3023 22.375 35.0031C22.375 32.7036 22.8113 30.5422 23.684 28.5189C24.5567 26.4956 25.741 24.7357 27.2369 23.2391C28.7329 21.7426 30.4921 20.5577 32.5145 19.6844C34.5369 18.8115 36.6977 18.375 38.9969 18.375C41.2964 18.375 43.4578 18.8113 45.4811 19.684C47.5044 20.5567 49.2643 21.741 50.7609 23.2369C52.2574 24.7329 53.4423 26.4921 54.3156 28.5145C55.1885 30.5369 55.625 32.6977 55.625 34.9969C55.625 37.2964 55.1887 39.4578 54.316 41.4811C53.4433 43.5044 52.259 45.2643 50.7631 46.7609C49.2671 48.2574 47.5079 49.4423 45.4855 50.3156C43.4631 51.1885 41.3023 51.625 39.0031 51.625Z" fill="white"/>
</g>
</g>
<defs>
<filter id="filter0_b_715_11070" x="-14" y="-14" width="106" height="98" filterUnits="userSpaceOnUse" color-interpolation-filters="sRGB">
<feFlood flood-opacity="0" result="BackgroundImageFix"/>
<feGaussianBlur in="BackgroundImageFix" stdDeviation="7"/>
<feComposite in2="SourceAlpha" operator="in" result="effect1_backgroundBlur_715_11070"/>
<feBlend mode="normal" in="SourceGraphic" in2="effect1_backgroundBlur_715_11070" result="shape"/>
</filter>
<radialGradient id="paint0_radial_715_11070" cx="0" cy="0" r="1" gradientUnits="userSpaceOnUse" gradientTransform="translate(39 35) rotate(89.7067) scale(51.1281 56.9724)">
<stop stop-color="#0E121B" stop-opacity="0"/>
<stop offset="1" stop-color="#043B81"/>
</radialGradient>
</defs>
</svg>
