<svg width="64" height="64" viewBox="0 0 64 64" fill="none" xmlns="http://www.w3.org/2000/svg">
<rect width="64" height="64" rx="8" fill="#F0F5FF"/>
<mask id="mask0_768_1438" style="mask-type:alpha" maskUnits="userSpaceOnUse" x="16" y="16" width="32" height="32">
<rect x="16" y="16" width="32" height="32" fill="#D9D9D9"/>
</mask>
<g mask="url(#mask0_768_1438)">
<path d="M31.9743 41.4585C31.7146 41.4585 31.4578 41.4115 31.204 41.3175C30.95 41.2235 30.7264 41.08 30.5333 40.8869L29.0027 39.5045C26.63 37.349 24.5363 35.2529 22.7217 33.2162C20.9072 31.1795 20 29.0629 20 26.8662C20 25.1704 20.5761 23.7465 21.7283 22.5945C22.8803 21.4423 24.3042 20.8662 26 20.8662C26.9727 20.8662 27.9854 21.112 29.0383 21.6035C30.0914 22.0949 31.0787 23.0218 32 24.3842C32.9213 23.0218 33.9086 22.0949 34.9617 21.6035C36.0146 21.112 37.0273 20.8662 38 20.8662C39.6958 20.8662 41.1197 21.4423 42.2717 22.5945C43.4239 23.7465 44 25.1704 44 26.8662C44 29.114 43.0556 31.2747 41.1667 33.3482C39.2778 35.4218 37.2102 37.4764 34.964 39.5122L33.441 40.8869C33.2479 41.08 33.0201 41.2235 32.7577 41.3175C32.4952 41.4115 32.2341 41.4585 31.9743 41.4585ZM31.3487 25.7689C30.5504 24.4815 29.7206 23.5649 28.859 23.0189C27.9974 22.4727 27.0444 22.1995 26 22.1995C24.6667 22.1995 23.5556 22.644 22.6667 23.5329C21.7778 24.4218 21.3333 25.5329 21.3333 26.8662C21.3333 27.8509 21.612 28.8607 22.1693 29.8955C22.7264 30.9307 23.4747 31.991 24.414 33.0765C25.3533 34.1619 26.4329 35.2721 27.6527 36.4072C28.8722 37.5423 30.1419 38.7107 31.4617 39.9122C31.6154 40.0491 31.7949 40.1175 32 40.1175C32.2051 40.1175 32.3846 40.0491 32.5383 39.9122C33.8581 38.7107 35.1278 37.5423 36.3473 36.4072C37.5671 35.2721 38.6467 34.1619 39.586 33.0765C40.5253 31.991 41.2736 30.9307 41.8307 29.8955C42.388 28.8607 42.6667 27.8509 42.6667 26.8662C42.6667 25.5329 42.2222 24.4218 41.3333 23.5329C40.4444 22.644 39.3333 22.1995 38 22.1995C36.9556 22.1995 36.0026 22.4727 35.141 23.0189C34.2794 23.5649 33.4496 24.4815 32.6513 25.7689C32.5811 25.8884 32.4862 25.9781 32.3667 26.0379C32.2471 26.0979 32.1249 26.1279 32 26.1279C31.8751 26.1279 31.7529 26.0979 31.6333 26.0379C31.5138 25.9781 31.4189 25.8884 31.3487 25.7689Z" fill="#0B63E5"/>
</g>
</svg>
