<svg width="64" height="64" viewBox="0 0 64 64" fill="none" xmlns="http://www.w3.org/2000/svg">
<rect width="64" height="64" rx="8" fill="#F0F5FF"/>
<mask id="mask0_768_1380" style="mask-type:alpha" maskUnits="userSpaceOnUse" x="16" y="16" width="32" height="32">
<rect x="16" y="16" width="32" height="32" fill="#D9D9D9"/>
</mask>
<g mask="url(#mask0_768_1380)">
<path d="M31.2877 35.333H32.713C32.8745 35.333 33.0159 35.2656 33.137 35.131C33.2579 34.9963 33.2961 34.8483 33.2517 34.687L32.6183 31.2123C33.0114 31.0756 33.3358 30.8335 33.5913 30.486C33.8469 30.1382 33.9747 29.7539 33.9747 29.333C33.9747 28.7901 33.7811 28.3253 33.394 27.9386C33.0069 27.552 32.5415 27.3586 31.998 27.3586C31.4542 27.3586 30.9897 27.552 30.6043 27.9386C30.2188 28.3253 30.026 28.7901 30.026 29.333C30.026 29.7539 30.1538 30.1382 30.4093 30.486C30.6649 30.8335 30.9892 31.0756 31.3823 31.2123L30.749 34.687C30.7045 34.8483 30.7428 34.9963 30.8637 35.131C30.9848 35.2656 31.1261 35.333 31.2877 35.333ZM32.0003 43.7893C31.879 43.7893 31.7517 43.7782 31.6183 43.756C31.485 43.7338 31.36 43.7004 31.2433 43.656C28.6198 42.656 26.5345 40.9599 24.9877 38.5676C23.4405 36.1752 22.667 33.5859 22.667 30.7996V25.0893C22.667 24.632 22.7971 24.2203 23.0573 23.8543C23.3175 23.4885 23.6541 23.2233 24.067 23.0586L31.2463 20.392C31.5063 20.298 31.7577 20.251 32.0003 20.251C32.243 20.251 32.4943 20.298 32.7543 20.392L39.9337 23.0586C40.3465 23.2233 40.6831 23.4885 40.9433 23.8543C41.2035 24.2203 41.3337 24.632 41.3337 25.0893V30.7996C41.3337 33.5859 40.5601 36.1752 39.013 38.5676C37.4661 40.9599 35.3809 42.656 32.7573 43.656C32.6407 43.7004 32.5157 43.7338 32.3823 43.756C32.249 43.7782 32.1217 43.7893 32.0003 43.7893ZM32.0003 42.533C34.3114 41.7996 36.2225 40.333 37.7337 38.133C39.2448 35.933 40.0003 33.4885 40.0003 30.7996V25.0636C40.0003 24.8928 39.9533 24.739 39.8593 24.6023C39.7653 24.4654 39.6329 24.3629 39.462 24.2946L32.2823 21.628C32.197 21.5938 32.103 21.5766 32.0003 21.5766C31.8977 21.5766 31.8037 21.5938 31.7183 21.628L24.5387 24.2946C24.3678 24.3629 24.2353 24.4654 24.1413 24.6023C24.0473 24.739 24.0003 24.8928 24.0003 25.0636V30.7996C24.0003 33.4885 24.7559 35.933 26.267 38.133C27.7781 40.333 29.6892 41.7996 32.0003 42.533Z" fill="#0B63E5"/>
</g>
</svg>
