<svg width="64" height="64" viewBox="0 0 64 64" fill="none" xmlns="http://www.w3.org/2000/svg">
<rect width="64" height="64" rx="8" fill="#0B63E5"/>
<mask id="mask0_768_1361" style="mask-type:alpha" maskUnits="userSpaceOnUse" x="16" y="16" width="32" height="32">
<rect x="16" y="16" width="32" height="32" fill="#D9D9D9"/>
</mask>
<g mask="url(#mask0_768_1361)">
<path d="M26.6569 22.4535L25.5799 19.2482L26.6776 18.8788L27.7546 22.0765L26.6569 22.4535ZM31.4109 20.9225V17.7432H32.5902V20.9225H31.4109ZM37.3442 22.4535L36.2466 22.0765L37.3236 18.8788L38.4212 19.2558L37.3442 22.4535ZM19.4569 46.0252L19.2622 44.6995L26.2956 43.6072C26.6742 43.5427 27.0099 43.3894 27.3026 43.1472C27.5952 42.9052 27.7946 42.6021 27.9006 42.2378L29.0082 38.7045C29.1707 38.2225 29.1579 37.7516 28.9699 37.2918C28.7819 36.8321 28.4579 36.4987 27.9979 36.2918L26.7442 40.2202L25.4672 39.8045L28.5799 30.0252C28.6757 29.7038 28.6851 29.3884 28.6082 29.0788C28.5313 28.7695 28.3596 28.5482 28.0929 28.4148L22.9596 38.1995C22.6724 38.7413 22.2636 39.1725 21.7329 39.4932C21.2024 39.8136 20.6301 39.9738 20.0159 39.9738H18.9492V38.6405H20.0159C20.3801 38.6405 20.7219 38.548 21.0412 38.3632C21.3606 38.1783 21.6042 37.9177 21.7722 37.5815L27.6466 26.3968L28.6979 26.9968C29.2808 27.3439 29.6719 27.8453 29.8712 28.5008C30.0703 29.1564 30.0681 29.8115 29.8646 30.4662L28.3956 35.0405C29.2022 35.3669 29.7838 35.9225 30.1402 36.7072C30.4967 37.4918 30.545 38.2987 30.2852 39.1278L29.1519 42.6612C28.9588 43.2696 28.6216 43.7768 28.1402 44.1828C27.6591 44.5888 27.1091 44.8388 26.4902 44.9328L19.4569 46.0252ZM44.5442 46.0508L37.5109 44.9585C36.892 44.8645 36.342 44.6145 35.8609 44.2085C35.3796 43.8025 35.0423 43.2953 34.8492 42.6868L33.7159 39.1535C33.4561 38.3244 33.5044 37.5175 33.8609 36.7328C34.2173 35.9482 34.7989 35.3926 35.6056 35.0662L34.1366 30.4918C33.933 29.8372 33.9308 29.1821 34.1299 28.5265C34.3292 27.8709 34.7203 27.3696 35.3032 27.0225L36.3546 26.4225L42.2289 37.6072C42.396 37.9434 42.6386 38.2039 42.9566 38.3888C43.2743 38.5737 43.6172 38.6662 43.9852 38.6662H45.0519V39.9995H43.9852C43.3714 39.9995 42.7992 39.8393 42.2686 39.5188C41.7377 39.1982 41.3287 38.7669 41.0416 38.2252L35.9082 28.4405C35.6416 28.5738 35.4698 28.7952 35.3929 29.1045C35.316 29.4141 35.3254 29.7295 35.4212 30.0508L38.5339 39.8302L37.2569 40.2455L36.0032 36.3175C35.5432 36.5244 35.2192 36.8577 35.0312 37.3175C34.8432 37.7773 34.8304 38.2482 34.9929 38.7302L36.1006 42.2635C36.2066 42.6277 36.4059 42.9308 36.6986 43.1728C36.9912 43.4148 37.3269 43.5682 37.7056 43.6328L44.7389 44.7252L44.5442 46.0508Z" fill="white"/>
</g>
</svg>
