<svg width="64" height="64" viewBox="0 0 64 64" fill="none" xmlns="http://www.w3.org/2000/svg">
<rect width="64" height="64" rx="8" fill="#F0F5FF"/>
<mask id="mask0_768_1418" style="mask-type:alpha" maskUnits="userSpaceOnUse" x="16" y="16" width="32" height="32">
<rect x="16" y="16" width="32" height="32" fill="#D9D9D9"/>
</mask>
<g mask="url(#mask0_768_1418)">
<path d="M25.3332 28.369L22.9485 29.692C22.6887 29.8356 22.4323 29.8757 22.1792 29.8123C21.9263 29.7492 21.7281 29.5878 21.5845 29.328L19.9435 26.456C19.8 26.1962 19.7597 25.9356 19.8229 25.674C19.8862 25.4125 20.0477 25.2099 20.3075 25.0663L26.6409 21.333H28.2562C28.5075 21.333 28.7071 21.4069 28.8549 21.5547C29.0029 21.7027 29.0769 21.9023 29.0769 22.1537V22.41C29.0769 23.1947 29.3679 23.878 29.9499 24.46C30.5319 25.042 31.2152 25.333 31.9999 25.333C32.7845 25.333 33.4679 25.042 34.0499 24.46C34.6319 23.878 34.9229 23.1947 34.9229 22.41V22.1537C34.9229 21.9023 34.9969 21.7027 35.1449 21.5547C35.2926 21.4069 35.4922 21.333 35.7435 21.333H37.3589L43.6922 25.0663C43.952 25.2099 44.1135 25.4125 44.1769 25.674C44.24 25.9356 44.1997 26.1962 44.0562 26.456L42.4152 29.328C42.2716 29.5878 42.0746 29.748 41.8242 29.8087C41.5737 29.8693 41.3161 29.8279 41.0512 29.6843L38.6665 28.3767V41.6407C38.6665 41.9329 38.5686 42.1769 38.3729 42.3727C38.1771 42.5685 37.9331 42.6663 37.6409 42.6663H26.3589C26.0666 42.6663 25.8226 42.5685 25.6269 42.3727C25.4311 42.1769 25.3332 41.9329 25.3332 41.6407V28.369ZM26.6665 26.133V41.333H37.3332V26.133L41.4152 28.374L42.7639 26.0663L37.0562 22.6817H36.2102C36.1333 23.7979 35.6979 24.7411 34.9039 25.5113C34.1096 26.2813 33.1416 26.6663 31.9999 26.6663C30.8581 26.6663 29.8901 26.2813 29.0959 25.5113C28.3019 24.7411 27.8664 23.7979 27.7895 22.6817H26.9435L21.2359 26.0663L22.5845 28.374L26.6665 26.133Z" fill="#0B63E5"/>
</g>
</svg>
